<svg width="35" height="35" viewBox="0 0 35 35" fill="none" xmlns="http://www.w3.org/2000/svg">
<path d="M17.5 0C7.83266 0 0 7.83266 0 17.5C0 27.1673 7.83266 35 17.5 35C27.1673 35 35 27.1673 35 17.5C35 7.83266 27.1673 0 17.5 0ZM23.1452 11.8548C24.3942 11.8548 25.4032 12.8639 25.4032 14.1129C25.4032 15.3619 24.3942 16.371 23.1452 16.371C21.8962 16.371 20.8871 15.3619 20.8871 14.1129C20.8871 12.8639 21.8962 11.8548 23.1452 11.8548ZM10.7258 28.7903C8.85585 28.7903 7.33871 27.3085 7.33871 25.4738C7.33871 24.0625 9.3498 21.2117 10.2742 19.9839C10.5 19.6804 10.9516 19.6804 11.1774 19.9839C12.1018 21.2117 14.1129 24.0625 14.1129 25.4738C14.1129 27.3085 12.5958 28.7903 10.7258 28.7903ZM11.8548 16.371C10.6058 16.371 9.59677 15.3619 9.59677 14.1129C9.59677 12.8639 10.6058 11.8548 11.8548 11.8548C13.1038 11.8548 14.1129 12.8639 14.1129 14.1129C14.1129 15.3619 13.1038 16.371 11.8548 16.371ZM23.8649 27.252C22.2843 25.3609 19.9627 24.2742 17.5 24.2742C16.004 24.2742 16.004 22.0161 17.5 22.0161C20.6331 22.0161 23.5897 23.3992 25.5937 25.8125C26.5675 26.9698 24.8034 28.3881 23.8649 27.252Z" fill="#d59be3"/>
</svg>
