<svg width="43" height="43" viewBox="0 0 43 43" fill="none" xmlns="http://www.w3.org/2000/svg">
<g filter="url(#filter0_d_158_286)">
<path d="M21.5 0C11.8327 0 4 7.83266 4 17.5C4 27.1673 11.8327 35 21.5 35C31.1673 35 39 27.1673 39 17.5C39 7.83266 31.1673 0 21.5 0ZM11.9032 15.1996C12.1361 12.2288 14.1754 10.1613 15.8548 10.1613C17.5343 10.1613 19.5736 12.2288 19.8065 15.1996C19.8558 15.8065 19.0444 16.0393 18.755 15.5171L18.0847 14.3175C17.5413 13.3508 16.7298 12.7933 15.8619 12.7933C14.994 12.7933 14.1825 13.3508 13.6391 14.3175L12.9687 15.5171C12.6653 16.0393 11.8538 15.7994 11.9032 15.1996ZM29.6008 23.8649C27.5897 26.2782 24.6401 27.6613 21.5 27.6613C18.3599 27.6613 15.4103 26.2782 13.3992 23.8649C12.4466 22.7147 14.1754 21.2752 15.1351 22.4183C16.7157 24.3165 19.0302 25.3962 21.5 25.3962C23.9698 25.3962 26.2843 24.3095 27.8649 22.4183C28.8246 21.2752 30.5534 22.7218 29.6008 23.8649ZM30.0383 15.5171L29.3679 14.3175C28.8246 13.3508 28.0131 12.7933 27.1452 12.7933C26.2772 12.7933 25.4657 13.3508 24.9224 14.3175L24.252 15.5171C23.9627 16.0323 23.1512 15.7994 23.2006 15.1996C23.4335 12.2288 25.4728 10.1613 27.1522 10.1613C28.8317 10.1613 30.871 12.2288 31.1038 15.1996C31.1462 15.8065 30.3276 16.0393 30.0383 15.5171Z" fill="#d59be3"/>
</g>
<defs>
<filter id="filter0_d_158_286" x="0" y="0" width="43" height="43" filterUnits="userSpaceOnUse" color-interpolation-filters="sRGB">
<feFlood flood-opacity="0" result="BackgroundImageFix"/>
<feColorMatrix in="SourceAlpha" type="matrix" values="0 0 0 0 0 0 0 0 0 0 0 0 0 0 0 0 0 0 127 0" result="hardAlpha"/>
<feOffset dy="4"/>
<feGaussianBlur stdDeviation="2"/>
<feComposite in2="hardAlpha" operator="out"/>
<feColorMatrix type="matrix" values="0 0 0 0 0 0 0 0 0 0 0 0 0 0 0 0 0 0 0.25 0"/>
<feBlend mode="normal" in2="BackgroundImageFix" result="effect1_dropShadow_158_286"/>
<feBlend mode="normal" in="SourceGraphic" in2="effect1_dropShadow_158_286" result="shape"/>
</filter>
</defs>
</svg>
