<svg width="35" height="35" viewBox="0 0 35 35" fill="none" xmlns="http://www.w3.org/2000/svg">
<path d="M17.5 0C7.83266 0 0 7.83266 0 17.5C0 27.1673 7.83266 35 17.5 35C27.1673 35 35 27.1673 35 17.5C35 7.83266 27.1673 0 17.5 0ZM23.1452 11.8548C24.3942 11.8548 25.4032 12.8639 25.4032 14.1129C25.4032 15.3619 24.3942 16.371 23.1452 16.371C21.8962 16.371 20.8871 15.3619 20.8871 14.1129C20.8871 12.8639 21.8962 11.8548 23.1452 11.8548ZM11.8548 11.8548C13.1038 11.8548 14.1129 12.8639 14.1129 14.1129C14.1129 15.3619 13.1038 16.371 11.8548 16.371C10.6058 16.371 9.59677 15.3619 9.59677 14.1129C9.59677 12.8639 10.6058 11.8548 11.8548 11.8548ZM25.6008 23.8649C23.5897 26.2782 20.6401 27.6613 17.5 27.6613C14.3599 27.6613 11.4103 26.2782 9.39919 23.8649C8.43952 22.7147 10.1754 21.2752 11.1351 22.4183C12.7157 24.3165 15.0302 25.3962 17.5 25.3962C19.9698 25.3962 22.2843 24.3095 23.8649 22.4183C24.8105 21.2752 26.5534 22.7147 25.6008 23.8649Z" fill="#d59be3"/>
</svg>
