<svg width="35" height="35" viewBox="0 0 35 35" fill="none" xmlns="http://www.w3.org/2000/svg">
<path d="M17.5 0C7.83266 0 0 7.83266 0 17.5C0 27.1673 7.83266 35 17.5 35C27.1673 35 35 27.1673 35 17.5C35 7.83266 27.1673 0 17.5 0ZM9.59677 16.371C9.59677 15.7147 9.88609 15.1361 10.3377 14.7198L8.1502 14.0635C7.5504 13.8871 7.21169 13.252 7.39516 12.6593C7.57157 12.0595 8.1996 11.7278 8.79939 11.9042L14.4446 13.5978C15.0444 13.7742 15.3831 14.4093 15.1996 15.002C15.0514 15.4889 14.6069 15.8065 14.12 15.8065C14.0847 15.8065 14.0423 15.7923 14 15.7923C14.0494 15.9829 14.12 16.1663 14.12 16.371C14.12 17.62 13.1109 18.629 11.8619 18.629C10.6129 18.629 9.59677 17.62 9.59677 16.371ZM21.4516 27.252C19.4899 24.8952 15.5101 24.8952 13.5413 27.252C12.5887 28.4022 10.8458 26.9556 11.8054 25.8054C13.2167 24.1119 15.2913 23.1381 17.4929 23.1381C19.6946 23.1381 21.7692 24.1119 23.1804 25.8054C24.1542 26.9698 22.3972 28.3881 21.4516 27.252ZM26.8569 14.0635L24.6694 14.7198C25.1139 15.129 25.4103 15.7147 25.4103 16.371C25.4103 17.62 24.4012 18.629 23.1522 18.629C21.9032 18.629 20.8942 17.62 20.8942 16.371C20.8942 16.1663 20.9577 15.9758 21.0141 15.7923C20.9718 15.7994 20.9365 15.8065 20.8942 15.8065C20.4073 15.8065 19.9627 15.4889 19.8145 15.002C19.6381 14.4022 19.9768 13.7742 20.5696 13.5978L26.2147 11.9042C26.8075 11.7278 27.4425 12.0665 27.619 12.6593C27.7954 13.2591 27.4567 13.8871 26.8569 14.0635Z" fill="#d59be3"/>
</svg>
